<svg id="Layer_1" data-name="Layer 1" xmlns="http://www.w3.org/2000/svg" viewBox="0 0 23.53 25.56"><defs><style>.cls-1,.cls-2{fill:none;stroke:#fff;stroke-width:1.4px;}.cls-1{stroke-linejoin:round;}</style></defs><title>icone_usuario_fff</title><path id="path10187-8-2" class="cls-1" d="M544.6,541.36l.31.94a65.65,65.65,0,0,1,6.36,2.39,1.38,1.38,0,0,1,.74,1.23v5.86a.16.16,0,0,1,0,.11h-22a.15.15,0,0,1,0-.11v-5.73a1.57,1.57,0,0,1,.87-1.4,33.41,33.41,0,0,1,5.79-2.34l.3-.95" transform="translate(-529.18 -527.03)"/><path id="path10187-9" class="cls-2" d="M535.38,538.92c-.09-.35-.44-.8-.62-.8s-.44-.26-.62-.62c-.36-.71-.36-2.75,0-2.75a3.06,3.06,0,0,0,.35-1.34,6.79,6.79,0,0,1,4.09-5.42,9.18,9.18,0,0,1,4.36,0,6.39,6.39,0,0,1,4,5.07,7.89,7.89,0,0,0,.27,1.42l.36.36c.53,1.06-.09,3.28-.8,3.28-.18,0-.54.45-.71,1C543.91,544.26,537.87,545.14,535.38,538.92Z" transform="translate(-529.18 -527.03)"/></svg>