<?xml version="1.0" encoding="utf-8"?>
<!-- Generator: Adobe Illustrator 22.1.0, SVG Export Plug-In . SVG Version: 6.00 Build 0)  -->
<svg version="1.1" id="Layer_1" xmlns="http://www.w3.org/2000/svg" xmlns:xlink="http://www.w3.org/1999/xlink" x="0px" y="0px"
	 viewBox="0 0 23.7 25.8" style="enable-background:new 0 0 23.7 25.8;" xml:space="preserve">
<style type="text/css">
	.st0{fill:#FFFFFF;stroke:#898989;stroke-width:1.6;stroke-linejoin:round;}
	.st1{fill:#FFFFFF;stroke:#898989;stroke-width:1.6;}
</style>
<g>
	<g>
		<path id="path10187-8-2_227_" inkscape:connector-curvature="0" sodipodi:nodetypes="cssscccsccccc" class="st0" d="M15.5,14.4
			l0.3,0.9c0,0,4.9,1.6,6.4,2.4c0.5,0.2,0.7,0.7,0.7,1.2v5.9c0,0,0,0.1,0,0.1l-22,0c0,0,0-0.1,0-0.1l0-5.7c0-0.6,0.3-1.1,0.9-1.4
			C3.1,17,3,17,7.5,15.4l0.3-0.9H15.5z"/>
		<path id="path10187-9_240_" inkscape:connector-curvature="0" sodipodi:nodetypes="ccssccscscscc" class="st1" d="M6.3,12
			c-0.1-0.4-0.4-0.8-0.6-0.8c-0.2,0-0.4-0.3-0.6-0.6c-0.4-0.7-0.4-2.8,0-2.8c0.1,0,0.3-0.6,0.4-1.3c0.4-2.5,2-4.6,4.1-5.4
			c1-0.4,3.4-0.4,4.4,0c2,0.7,3.7,2.8,4,5.1c0.1,0.4,0.1,1,0.3,1.4c0.1,0.1,0.3,0.3,0.4,0.4c0.5,1.1-0.1,3.3-0.8,3.3
			c-0.2,0-0.5,0.4-0.7,1C14.8,17.3,8.8,18.2,6.3,12z"/>
	</g>
</g>
</svg>
