<svg id="Layer_1" data-name="Layer 1" xmlns="http://www.w3.org/2000/svg" viewBox="0 0 25.54 24.68"><defs><style>.cls-1{fill:#fff;}</style></defs><title>icone_chave_fff</title><path class="cls-1" d="M550.94,539.72a7,7,0,0,0-9.85-9.85,6.53,6.53,0,0,0-.8,7.91L533,545.12l-.86-.86a1.42,1.42,0,0,0-2,0l-2.51,2.51a1.41,1.41,0,0,0,0,2l.87.87a1.41,1.41,0,0,0,0,2l.75.75a1.41,1.41,0,0,0,2,0L543,540.52A6.5,6.5,0,0,0,550.94,539.72Zm-22.54,7.86,2.51-2.51a.25.25,0,0,1,.36,0l.87.87-2.88,2.87-.86-.86A.27.27,0,0,1,528.4,547.58Zm2,4a.27.27,0,0,1-.37,0l-.75-.75a.25.25,0,0,1,0-.36L541,538.75c.17.2.34.4.53.59a7.31,7.31,0,0,0,.59.52Zm11.91-13a5.29,5.29,0,1,1,7.84.39A5.56,5.56,0,0,1,542.29,538.52Z" transform="translate(-527.17 -528.1)"/><path class="cls-1" d="M548.64,532.18a3.72,3.72,0,1,0,.21,5.45A3.88,3.88,0,0,0,548.64,532.18Zm-4.52,4.52a2.7,2.7,0,1,1,4,.21A2.86,2.86,0,0,1,544.12,536.7Z" transform="translate(-527.17 -528.1)"/></svg>