<svg id="Layer_1" data-name="Layer 1" xmlns="http://www.w3.org/2000/svg" viewBox="0 0 25.62 22.95"><defs><style>.cls-1{fill:none;stroke-linejoin:round;stroke-width:2.6px;}.cls-1,.cls-2{stroke:#c95050;}.cls-2{fill:#c95050;stroke-miterlimit:10;stroke-width:0.5px;}</style></defs><title>icone_aviso</title><path class="cls-1" d="M551.6,545.71l-8.5-14.39a3,3,0,0,0-5.18,0l-8.5,14.39a2.88,2.88,0,0,0,0,3A2.94,2.94,0,0,0,532,550.2h17a3,3,0,0,0,2.56-4.49Z" transform="translate(-527.7 -528.55)"/><path class="cls-2" d="M540.55,535.33a.79.79,0,0,0-.78.79v6.37a.79.79,0,0,0,.78.79.8.8,0,0,0,.79-.79v-6.37A.8.8,0,0,0,540.55,535.33Z" transform="translate(-527.7 -528.55)"/><path class="cls-2" d="M540.55,544.72a.84.84,0,0,0-.87.79v.41a.88.88,0,0,0,1.74,0v-.41A.81.81,0,0,0,540.55,544.72Z" transform="translate(-527.7 -528.55)"/></svg>
