<?xml version="1.0" encoding="utf-8"?>
<!-- Generator: Adobe Illustrator 22.1.0, SVG Export Plug-In . SVG Version: 6.00 Build 0)  -->
<svg version="1.1" id="Layer_1" xmlns="http://www.w3.org/2000/svg" xmlns:xlink="http://www.w3.org/1999/xlink" x="0px" y="0px"
	 viewBox="0 0 24.6 22" style="enable-background:new 0 0 24.6 22;" xml:space="preserve">
<style type="text/css">
	.st0{fill:none;stroke:#C95050;stroke-width:1.6;stroke-linejoin:round;}
	.st1{fill:#C95050;}
</style>
<g>
	<path class="st0" d="M23.4,16.7L14.9,2.3c-0.6-0.9-1.5-1.5-2.6-1.5s-2,0.6-2.6,1.5L1.2,16.7c-0.6,0.9-0.6,2.1,0,3
		c0.6,1,1.5,1.5,2.6,1.5h17.1c1.1,0,2.1-0.6,2.6-1.5C24,18.7,24,17.6,23.4,16.7z"/>
	<path class="st1" d="M12.4,6.3c-0.4,0-0.8,0.4-0.8,0.8v6.4c0,0.4,0.4,0.8,0.8,0.8c0.4,0,0.8-0.4,0.8-0.8V7.1
		C13.1,6.6,12.8,6.3,12.4,6.3z"/>
	<path class="st1" d="M12.4,15.7c-0.5,0-0.9,0.4-0.9,0.8v0.4c0,0.4,0.4,0.8,0.9,0.8c0.5,0,0.9-0.4,0.9-0.8v-0.4
		C13.2,16,12.8,15.7,12.4,15.7z"/>
</g>
</svg>
