<?xml version="1.0" encoding="utf-8"?>
<!-- Generator: Adobe Illustrator 22.1.0, SVG Export Plug-In . SVG Version: 6.00 Build 0)  -->
<svg version="1.1" id="Layer_1" xmlns="http://www.w3.org/2000/svg" xmlns:xlink="http://www.w3.org/1999/xlink" x="0px" y="0px"
	 viewBox="0 0 25.5 24.7" style="enable-background:new 0 0 25.5 24.7;" xml:space="preserve">
<style type="text/css">
	.st0{fill:#898989;}
</style>
<g>
	<g>
		<path class="st0" d="M23.8,11.6c2.5-2.5,2.3-6.7-0.4-9.5c-2.7-2.7-7-2.9-9.5-0.4c-2.1,2.1-2.3,5.3-0.8,7.9L5.8,17l-0.9-0.9
			c-0.6-0.6-1.4-0.6-2,0l-2.5,2.5c-0.6,0.6-0.6,1.4,0,2l0.9,0.9c-0.5,0.6-0.5,1.4,0,2L2,24.3c0.6,0.5,1.4,0.5,2,0l11.8-11.8
			C18.5,13.9,21.7,13.7,23.8,11.6z M1.2,19.5L3.7,17c0.1-0.1,0.3-0.1,0.4,0L5,17.8l-2.9,2.9l-0.9-0.9C1.1,19.7,1.1,19.6,1.2,19.5z
			 M3.2,23.4c-0.1,0.1-0.3,0.1-0.4,0l-0.7-0.7c-0.1-0.1-0.1-0.3,0-0.4l11.7-11.7c0.2,0.2,0.3,0.4,0.5,0.6c0.2,0.2,0.4,0.4,0.6,0.5
			L3.2,23.4z M15.1,10.4c-2.3-2.3-2.4-5.8-0.4-7.8s5.6-1.9,7.8,0.4S25,8.8,23,10.8C20.9,12.9,17.4,12.7,15.1,10.4z"/>
		<path class="st0" d="M21.8,3.7C20,2,17.3,1.8,15.6,3.5s-1.5,4.4,0.2,6.2c1.8,1.8,4.5,1.9,6.2,0.2C23.7,8.3,23.6,5.5,21.8,3.7z
			 M16.7,8.9c-1.3-1.3-1.4-3.4-0.2-4.6c1.2-1.2,3.2-1.1,4.6,0.2c1.3,1.3,1.4,3.4,0.2,4.6C20.1,10.3,18,10.2,16.7,8.9z"/>
	</g>
</g>
</svg>
