<?xml version="1.0" encoding="utf-8"?>
<!-- Generator: Adobe Illustrator 22.1.0, SVG Export Plug-In . SVG Version: 6.00 Build 0)  -->
<svg version="1.1" id="Layer_1" xmlns="http://www.w3.org/2000/svg" xmlns:xlink="http://www.w3.org/1999/xlink" x="0px" y="0px"
	 viewBox="0 0 152 152" style="enable-background:new 0 0 152 152;" xml:space="preserve">
<style type="text/css">
	.st0{fill:#68C171;}
	.st1{fill:#FFFFFF;stroke:#FFFFFF;stroke-width:3.5;stroke-miterlimit:10;}
</style>
<path class="st0" d="M136.9,152H15.1C6.8,152,0,145.2,0,136.9V15.1C0,6.8,6.8,0,15.1,0h121.8c8.3,0,15.1,6.8,15.1,15.1v121.8
	C152,145.2,145.2,152,136.9,152z"/>
<g>
	<g>
		<path class="st1" d="M102.7,48.8H82.1c-0.7,0-1.3,0.6-1.3,1.3v69.3c0,0.7-0.6,1.3-1.3,1.3h-6.7c-0.7,0-1.3-0.6-1.3-1.3V50.1
			c0-0.7-0.6-1.3-1.3-1.3H49.5c-0.7,0-1.3-0.6-1.3-1.3v-5.8c0-0.7,0.6-1.3,1.3-1.3h53.1c0.7,0,1.3,0.6,1.3,1.3v5.8
			C104,48.2,103.4,48.8,102.7,48.8z"/>
	</g>
</g>
</svg>
