<svg id="Layer_1" data-name="Layer 1" xmlns="http://www.w3.org/2000/svg" viewBox="0 0 23.73 25.76"><defs><style>.cls-1,.cls-2{fill:none;stroke:#898989;stroke-width:1.6px;}.cls-1{stroke-linejoin:round;}</style></defs><title>icone_usuario1</title><path id="path10187-8-2" class="cls-1" d="M15.52,14.43l.31,1S20.76,17,22.2,17.76A1.39,1.39,0,0,1,22.93,19v5.86a.16.16,0,0,1-.05.11H.85a.16.16,0,0,1,0-.11V19.13a1.58,1.58,0,0,1,.87-1.41,33.82,33.82,0,0,1,5.79-2.34l.31-1"/><path id="path10187-9" class="cls-2" d="M6.3,12c-.08-.36-.44-.8-.62-.8s-.44-.27-.62-.62c-.36-.72-.36-2.76,0-2.76a3,3,0,0,0,.36-1.33A6.74,6.74,0,0,1,9.5,1.07a8.94,8.94,0,0,1,4.36,0,6.4,6.4,0,0,1,4,5.06,8.65,8.65,0,0,0,.26,1.42l.36.36c.53,1.07-.09,3.29-.8,3.29-.18,0-.53.44-.71,1C14.84,17.33,8.79,18.22,6.3,12Z"/></svg>